<?xml version="1.0" standalone="no"?><!DOCTYPE svg PUBLIC "-//W3C//DTD SVG 1.1//EN" "http://www.w3.org/Graphics/SVG/1.1/DTD/svg11.dtd"><svg t="1534314383806" class="icon" style="" viewBox="0 0 1024 1024" version="1.1" xmlns="http://www.w3.org/2000/svg" p-id="1107" xmlns:xlink="http://www.w3.org/1999/xlink" width="200" height="200"><defs><style type="text/css"></style></defs><path d="M697.72288 278.45632 697.72288 225.28l-20.48 0 0 53.17632L414.5152 278.45632 414.5152 225.28l-20.48 0 0 53.17632L266.43456 278.45632l0 561.78688 561.79712 0L828.23168 278.45632 697.72288 278.45632zM394.0352 298.93632 394.0352 332.8l20.48 0 0-33.86368 262.71744 0L677.23264 332.8l20.48 0 0-33.86368 110.0288 0 0 98.72384L286.91456 397.66016l0-98.72384L394.0352 298.93632zM286.91456 819.7632 286.91456 418.12992l520.83712 0 0 401.62304L286.91456 819.75296z" p-id="1108"></path><path d="M442.30656 679.05536l16.06656-14.82752c42.35264-40.79616 69.23264-70.78912 69.23264-107.88864 0-28.74368-18.21696-58.40896-61.50144-58.40896-23.17312 0-42.9568 8.6528-56.87296 20.40832l8.6528 19.1488c9.27744-7.72096 24.4224-16.98816 42.65984-16.98816 29.97248 0 39.86432 18.85184 39.86432 39.26016-0.3072 30.26944-23.49056 56.24832-74.79296 105.0624l-21.32992 20.71552 0 16.68096 128.28672 0 0-22.54848-90.25536 0L442.3168 679.05536z" p-id="1109"></path><path d="M642.6624 593.77664l0-0.62464c24.70912-8.96 37.08928-26.5728 37.08928-47.28832 0-24.41216-17.94048-47.91296-57.50784-47.91296-21.61664 0-42.02496 7.72096-52.52096 15.45216l7.09632 19.78368c8.6528-6.16448 24.10496-13.29152 40.192-13.29152 25.01632 0 35.23584 14.21312 35.23584 30.30016 0 23.808-25.0368 33.9968-44.82048 33.9968L592.2816 584.192l0 20.38784 15.14496 0c26.27584 0 51.6096 12.05248 51.9168 40.192 0.29696 16.68096-10.496 38.93248-45.42464 38.93248-18.85184 0-36.79232-7.72096-44.51328-12.65664l-7.40352 21.01248c9.89184 6.49216 29.67552 13.58848 52.21376 13.58848 48.22016 0 73.25696-28.1088 73.25696-60.27264C687.48288 617.25696 667.37152 598.70208 642.6624 593.77664z" p-id="1110"></path></svg>